<svg width="512" height="512" viewBox="0 0 512 512" fill="none" xmlns="http://www.w3.org/2000/svg">
<path fill-rule="evenodd" clip-rule="evenodd" d="M416.634 201.254C416.634 266.012 364.138 318.508 299.38 318.508C271.47 318.508 245.837 308.757 225.704 292.475C221.842 289.352 219.654 284.685 219.058 279.754C217.57 267.425 215.154 254.733 212.264 242.451C218.642 237.635 222.764 229.99 222.764 221.382C222.764 207.515 212.066 196.147 198.473 195.082C195.589 186.765 192.829 179.576 190.49 174.017C188.523 169.345 188.02 164.096 189.831 159.362C206.693 115.293 249.382 84 299.38 84C364.138 84 416.634 136.496 416.634 201.254ZM366.382 201.254C366.382 238.258 336.384 268.256 299.38 268.256C262.376 268.256 232.378 238.258 232.378 201.254C232.378 164.25 262.376 134.252 299.38 134.252C336.384 134.252 366.382 164.25 366.382 201.254ZM300.801 115.572C305.357 115.572 309.05 111.879 309.05 107.324C309.05 102.768 305.357 99.0755 300.801 99.0755C296.246 99.0755 292.553 102.768 292.553 107.324C292.553 111.879 296.246 115.572 300.801 115.572ZM400.467 201.127C400.467 205.683 396.774 209.375 392.219 209.375C387.663 209.375 383.97 205.683 383.97 201.127C383.97 196.572 387.663 192.879 392.219 192.879C396.774 192.879 400.467 196.572 400.467 201.127ZM300.928 300.666C305.484 300.666 309.177 296.973 309.177 292.418C309.177 287.862 305.484 284.169 300.928 284.169C296.373 284.169 292.68 287.862 292.68 292.418C292.68 296.973 296.373 300.666 300.928 300.666Z" />
<path fill-rule="evenodd" clip-rule="evenodd" d="M213.5 425V286.246C212.386 272.839 210.002 258.947 206.975 245.552C203.733 246.975 200.15 247.764 196.382 247.764C181.812 247.764 170 235.953 170 221.382C170 208.185 179.69 197.251 192.343 195.307C188.82 185.407 185.513 177.281 183.007 171.844C175.066 158.149 165.654 145.234 154.867 133.346L133.255 109.528C123.605 98.8943 107.162 98.0961 96.5282 107.745C85.8942 117.395 85.096 133.838 94.7454 144.472L116.357 168.289C145.408 200.303 161.5 241.985 161.5 285.215V425C161.5 439.359 173.141 451 187.5 451C201.859 451 213.5 439.359 213.5 425ZM115.5 137C120.194 137 124 133.194 124 128.5C124 123.806 120.194 120 115.5 120C110.806 120 107 123.806 107 128.5C107 133.194 110.806 137 115.5 137ZM197 416.5C197 421.194 193.194 425 188.5 425C183.806 425 180 421.194 180 416.5C180 411.806 183.806 408 188.5 408C193.194 408 197 411.806 197 416.5ZM188.5 319C193.194 319 197 315.194 197 310.5C197 305.806 193.194 302 188.5 302C183.806 302 180 305.806 180 310.5C180 315.194 183.806 319 188.5 319Z" />
<path d="M196.5 237C205.337 237 212.5 229.837 212.5 221C212.5 212.163 205.337 205 196.5 205C187.663 205 180.5 212.163 180.5 221C180.5 229.837 187.663 237 196.5 237Z" />
</svg>
