<svg viewBox="0 0 664 808" fill="none" xmlns="http://www.w3.org/2000/svg">
<g id="Map">
<path id="l4" fill-rule="evenodd" clip-rule="evenodd" d="M6.99997 212C7.03173 208.157 10.0743 205 13.9177 205H82.7307C85.23 205 87.5397 206.333 88.7907 208.496L145.697 306.917C146.252 307.876 146.571 308.953 146.628 310.06L150.318 381.557C150.474 384.58 151.68 387.454 153.729 389.683L165.319 402.296C167.781 404.975 171.253 406.5 174.892 406.5H378C379.657 406.5 381 405.157 381 403.5C381 401.843 379.657 400.5 378 400.5H174.892C172.933 400.5 171.063 399.679 169.737 398.236L158.147 385.623C157.044 384.423 156.394 382.875 156.31 381.247L152.62 309.751C152.514 307.695 151.922 305.695 150.892 303.913L93.9849 205.493C91.6616 201.475 87.3722 199 82.7307 199H13.9177C6.77992 199 1.05916 204.813 1.00017 211.95L1.0001 272.975C0.986412 274.632 2.31841 275.986 3.97521 276C5.63201 276.014 6.98621 274.682 6.9999 273.025L6.99997 212ZM25 203C25.5523 203 26 202.552 26 202C26 201.448 25.5523 201 25 201C24.4477 201 24 201.448 24 202C24 202.552 24.4477 203 25 203ZM58 202C58 202.552 57.5523 203 57 203C56.4477 203 56 202.552 56 202C56 201.448 56.4477 201 57 201C57.5523 201 58 201.448 58 202ZM87 204C87.5523 204 88 203.552 88 203C88 202.448 87.5523 202 87 202C86.4477 202 86 202.448 86 203C86 203.552 86.4477 204 87 204ZM108 234C108 234.552 107.552 235 107 235C106.448 235 106 234.552 106 234C106 233.448 106.448 233 107 233C107.552 233 108 233.448 108 234ZM150.5 326C151.052 326 151.5 325.552 151.5 325C151.5 324.448 151.052 324 150.5 324C149.948 324 149.5 324.448 149.5 325C149.5 325.552 149.948 326 150.5 326ZM154 372C154 372.552 153.552 373 153 373C152.448 373 152 372.552 152 372C152 371.448 152.448 371 153 371C153.552 371 154 371.448 154 372ZM152 350C152.552 350 153 349.552 153 349C153 348.448 152.552 348 152 348C151.448 348 151 348.448 151 349C151 349.552 151.448 350 152 350ZM174 403C174 403.552 173.552 404 173 404C172.448 404 172 403.552 172 403C172 402.448 172.448 402 173 402C173.552 402 174 402.448 174 403ZM162.5 396C163.052 396 163.5 395.552 163.5 395C163.5 394.448 163.052 394 162.5 394C161.948 394 161.5 394.448 161.5 395C161.5 395.552 161.948 396 162.5 396ZM156 386C156 386.552 155.552 387 155 387C154.448 387 154 386.552 154 386C154 385.448 154.448 385 155 385C155.552 385 156 385.448 156 386ZM185 404.5C185.552 404.5 186 404.052 186 403.5C186 402.948 185.552 402.5 185 402.5C184.448 402.5 184 402.948 184 403.5C184 404.052 184.448 404.5 185 404.5ZM229 403.5C229 404.052 228.552 404.5 228 404.5C227.448 404.5 227 404.052 227 403.5C227 402.948 227.448 402.5 228 402.5C228.552 402.5 229 402.948 229 403.5ZM251 404.5C251.552 404.5 252 404.052 252 403.5C252 402.948 251.552 402.5 251 402.5C250.448 402.5 250 402.948 250 403.5C250 404.052 250.448 404.5 251 404.5ZM335 403.5C335 404.052 334.552 404.5 334 404.5C333.448 404.5 333 404.052 333 403.5C333 402.948 333.448 402.5 334 402.5C334.552 402.5 335 402.948 335 403.5ZM376 404.5C376.552 404.5 377 404.052 377 403.5C377 402.948 376.552 402.5 376 402.5C375.448 402.5 375 402.948 375 403.5C375 404.052 375.448 404.5 376 404.5ZM5 220C5 220.552 4.55228 221 4 221C3.44772 221 3 220.552 3 220C3 219.448 3.44772 219 4 219C4.55228 219 5 219.448 5 220ZM8 205C8.55228 205 9 204.552 9 204C9 203.448 8.55228 203 8 203C7.44772 203 7 203.448 7 204C7 204.552 7.44772 205 8 205ZM5 245C5 245.552 4.55228 246 4 246C3.44772 246 3 245.552 3 245C3 244.448 3.44772 244 4 244C4.55228 244 5 244.448 5 245ZM4 269C4.55228 269 5 268.552 5 268C5 267.448 4.55228 267 4 267C3.44772 267 3 267.448 3 268C3 268.552 3.44772 269 4 269Z" fill="#F4980E"/>
<path id="l1" fill-rule="evenodd" clip-rule="evenodd" d="M127.096 256.901C128.53 256.072 130.365 256.563 131.194 257.997L153.555 296.504C154.806 298.667 157.116 300 159.615 300H264.094C268.369 300 272.37 302.101 274.796 305.619L288.834 325.974C290.141 327.869 292.295 329 294.596 329H337.174C339.636 329 341.918 327.706 343.181 325.592L366.36 286.828C368.707 282.903 372.944 280.5 377.517 280.5H614C618.345 282.5 615.845 286.5 614 286.5H377.517C375.055 286.5 372.773 287.794 371.509 289.908L348.331 328.672C345.984 332.597 341.747 335 337.174 335H294.596C290.322 335 286.321 332.899 283.895 329.381L269.857 309.026C268.55 307.131 266.396 306 264.094 306H159.615C154.973 306 150.684 303.525 148.361 299.507L126 261C125.171 259.566 125.661 257.731 127.096 256.901ZM180 303C180 303.552 179.552 304 179 304C178.448 304 178 303.552 178 303C178 302.448 178.448 302 179 302C179.552 302 180 302.448 180 303ZM231 304C231.552 304 232 303.552 232 303C232 302.448 231.552 302 231 302C230.448 302 230 302.448 230 303C230 303.552 230.448 304 231 304ZM269.5 303.5C269.5 304.052 269.052 304.5 268.5 304.5C267.948 304.5 267.5 304.052 267.5 303.5C267.5 302.948 267.948 302.5 268.5 302.5C269.052 302.5 269.5 302.948 269.5 303.5ZM345 329C345 329.552 344.552 330 344 330C343.448 330 343 329.552 343 329C343 328.448 343.448 328 344 328C344.552 328 345 328.448 345 329ZM319 333C319.552 333 320 332.552 320 332C320 331.448 319.552 331 319 331C318.448 331 318 331.448 318 332C318 332.552 318.448 333 319 333ZM549.5 283.5C549.5 284.052 549.052 284.5 548.5 284.5C547.948 284.5 547.5 284.052 547.5 283.5C547.5 282.948 547.948 282.5 548.5 282.5C549.052 282.5 549.5 282.948 549.5 283.5ZM562.5 284.5C563.052 284.5 563.5 284.052 563.5 283.5C563.5 282.948 563.052 282.5 562.5 282.5C561.948 282.5 561.5 282.948 561.5 283.5C561.5 284.052 561.948 284.5 562.5 284.5ZM583.5 283.5C583.5 284.052 583.052 284.5 582.5 284.5C581.948 284.5 581.5 284.052 581.5 283.5C581.5 282.948 581.948 282.5 582.5 282.5C583.052 282.5 583.5 282.948 583.5 283.5ZM609.5 284.5C610.052 284.5 610.5 284.052 610.5 283.5C610.5 282.948 610.052 282.5 609.5 282.5C608.948 282.5 608.5 282.948 608.5 283.5C608.5 284.052 608.948 284.5 609.5 284.5ZM287 329.5C287.552 329.5 288 329.052 288 328.5C288 327.948 287.552 327.5 287 327.5C286.448 327.5 286 327.948 286 328.5C286 329.052 286.448 329.5 287 329.5Z" fill="#82FC37"/>
<path id="l2" fill-rule="evenodd" clip-rule="evenodd" d="M410 83C410 81.3431 408.657 80 407 80C405.343 80 404 81.3431 404 83V141.37C404 142.577 403.688 143.763 403.095 144.814L350.418 238.046C348.354 241.7 348.18 246.125 349.952 249.929L362.531 276.937C363.515 279.05 363.383 281.515 362.178 283.51L319.849 353.618C318.581 355.717 316.308 357 313.856 357H230.566C225.72 357 221.276 359.696 219.037 363.994L179.471 439.942C178.505 441.797 178 443.857 178 445.949V539.5L177.5 602.976L177.5 603.005L177.5 603.036L178 644.985L177.5 741.985C177.492 743.641 178.828 744.991 180.485 745C182.141 745.008 183.491 743.672 183.5 742.015L184 645.015C184 644.998 184 644.981 184 644.964L183.5 603.024L184 539.524L184 539.5V445.949C184 444.823 184.272 443.713 184.792 442.714L224.358 366.766C225.564 364.452 227.957 363 230.566 363H313.856C318.41 363 322.632 360.617 324.985 356.719L367.314 286.612C369.552 282.905 369.798 278.328 367.97 274.404L355.391 247.396C354.437 245.348 354.531 242.965 355.642 240.997L408.318 147.765C409.421 145.814 410 143.611 410 141.37V83ZM407 88C407.552 88 408 87.5523 408 87C408 86.4477 407.552 86 407 86C406.448 86 406 86.4477 406 87C406 87.5523 406.448 88 407 88ZM408 110C408 110.552 407.552 111 407 111C406.448 111 406 110.552 406 110C406 109.448 406.448 109 407 109C407.552 109 408 109.448 408 110ZM408 126C408 126.552 407.552 127 407 127C406.448 127 406 126.552 406 126C406 125.448 406.448 125 407 125C407.552 125 408 125.448 408 126ZM407 144C407.552 144 408 143.552 408 143C408 142.448 407.552 142 407 142C406.448 142 406 142.448 406 143C406 143.552 406.448 144 407 144ZM397 163C397 163.552 396.552 164 396 164C395.448 164 395 163.552 395 163C395 162.448 395.448 162 396 162C396.552 162 397 162.448 397 163ZM384 186C384 186.552 383.552 187 383 187C382.448 187 382 186.552 382 186C382 185.448 382.448 185 383 185C383.552 185 384 185.448 384 186ZM363 223C363 223.552 362.552 224 362 224C361.448 224 361 223.552 361 223C361 222.448 361.448 222 362 222C362.552 222 363 222.448 363 223ZM353 245C353 245.552 352.552 246 352 246C351.448 246 351 245.552 351 245C351 244.448 351.448 244 352 244C352.552 244 353 244.448 353 245ZM362 269C362.552 269 363 268.552 363 268C363 267.448 362.552 267 362 267C361.448 267 361 267.448 361 268C361 268.552 361.448 269 362 269ZM329 346C329 346.552 328.552 347 328 347C327.448 347 327 346.552 327 346C327 345.448 327.448 345 328 345C328.552 345 329 345.448 329 346ZM316 361C316.552 361 317 360.552 317 360C317 359.448 316.552 359 316 359C315.448 359 315 359.448 315 360C315 360.552 315.448 361 316 361ZM258 360C258 360.552 257.552 361 257 361C256.448 361 256 360.552 256 360C256 359.448 256.448 359 257 359C257.552 359 258 359.448 258 360ZM226 362C226.552 362 227 361.552 227 361C227 360.448 226.552 360 226 360C225.448 360 225 360.448 225 361C225 361.552 225.448 362 226 362ZM213.5 383C213.5 383.552 213.052 384 212.5 384C211.948 384 211.5 383.552 211.5 383C211.5 382.448 211.948 382 212.5 382C213.052 382 213.5 382.448 213.5 383ZM181.5 444C182.052 444 182.5 443.552 182.5 443C182.5 442.448 182.052 442 181.5 442C180.948 442 180.5 442.448 180.5 443C180.5 443.552 180.948 444 181.5 444ZM182 479C182 479.552 181.552 480 181 480C180.448 480 180 479.552 180 479C180 478.448 180.448 478 181 478C181.552 478 182 478.448 182 479ZM181 536C181.552 536 182 535.552 182 535C182 534.448 181.552 534 181 534C180.448 534 180 534.448 180 535C180 535.552 180.448 536 181 536ZM182 621C182 621.552 181.552 622 181 622C180.448 622 180 621.552 180 621C180 620.448 180.448 620 181 620C181.552 620 182 620.448 182 621ZM181 662C181.552 662 182 661.552 182 661C182 660.448 181.552 660 181 660C180.448 660 180 660.448 180 661C180 661.552 180.448 662 181 662ZM182 710C182 710.552 181.552 711 181 711C180.448 711 180 710.552 180 710C180 709.448 180.448 709 181 709C181.552 709 182 709.448 182 710ZM181 742C181.552 742 182 741.552 182 741C182 740.448 181.552 740 181 740C180.448 740 180 740.448 180 741C180 741.552 180.448 742 181 742Z" fill="#FF3A3A"/>
<path id="l9" fill-rule="evenodd" clip-rule="evenodd" d="M597.744 445.5C595.254 445.5 592.952 446.822 591.697 448.973L525.985 561.505C523.662 565.525 519.372 568 514.73 568H457.414C454.861 568 452.51 569.39 451.28 571.628L427.478 616.762C425.194 620.918 420.828 623.5 416.086 623.5H354.93C350.528 623.5 346.424 621.272 344.027 617.58L324.941 588.188C323.65 586.2 321.441 585 319.07 585L153.032 584.5C151.375 584.518 150.018 583.189 150 581.532C149.982 579.875 151.311 578.518 152.968 578.5L319.07 579C323.472 579 327.576 581.228 329.973 584.92L349.059 614.312C350.35 616.3 352.559 617.5 354.93 617.5H416.086C418.639 617.5 420.99 616.11 422.22 613.872L446.022 568.738C448.306 564.582 452.672 562 457.414 562H514.73C517.229 562 519.539 560.667 520.79 558.503L586.515 445.95C588.844 441.956 593.12 439.5 597.744 439.5H626C627.657 439.5 629 440.843 629 442.5C629 444.157 627.657 445.5 626 445.5H597.744ZM156 581.5C156 582.052 155.552 582.5 155 582.5C154.448 582.5 154 582.052 154 581.5C154 580.948 154.448 580.5 155 580.5C155.552 580.5 156 580.948 156 581.5ZM207 582.5C207.552 582.5 208 582.052 208 581.5C208 580.948 207.552 580.5 207 580.5C206.448 580.5 206 580.948 206 581.5C206 582.052 206.448 582.5 207 582.5ZM270 581.5C270 582.052 269.552 582.5 269 582.5C268.448 582.5 268 582.052 268 581.5C268 580.948 268.448 580.5 269 580.5C269.552 580.5 270 580.948 270 581.5ZM306 582.5C306.552 582.5 307 582.052 307 581.5C307 580.948 306.552 580.5 306 580.5C305.448 580.5 305 580.948 305 581.5C305 582.052 305.448 582.5 306 582.5ZM325 583.5C325 584.052 324.552 584.5 324 584.5C323.448 584.5 323 584.052 323 583.5C323 582.948 323.448 582.5 324 582.5C324.552 582.5 325 582.948 325 583.5ZM334 597.5C334.552 597.5 335 597.052 335 596.5C335 595.948 334.552 595.5 334 595.5C333.448 595.5 333 595.948 333 596.5C333 597.052 333.448 597.5 334 597.5ZM352 619.5C352 620.052 351.552 620.5 351 620.5C350.448 620.5 350 620.052 350 619.5C350 618.948 350.448 618.5 351 618.5C351.552 618.5 352 618.948 352 619.5ZM400 621.5C400.552 621.5 401 621.052 401 620.5C401 619.948 400.552 619.5 400 619.5C399.448 619.5 399 619.948 399 620.5C399 621.052 399.448 621.5 400 621.5ZM472 565C472 565.552 471.552 566 471 566C470.448 566 470 565.552 470 565C470 564.448 470.448 564 471 564C471.552 564 472 564.448 472 565ZM504 566C504.552 566 505 565.552 505 565C505 564.448 504.552 564 504 564C503.448 564 503 564.448 503 565C503 565.552 503.448 566 504 566ZM523 562.5C523 563.052 522.552 563.5 522 563.5C521.448 563.5 521 563.052 521 562.5C521 561.948 521.448 561.5 522 561.5C522.552 561.5 523 561.948 523 562.5ZM542 529.5C542.552 529.5 543 529.052 543 528.5C543 527.948 542.552 527.5 542 527.5C541.448 527.5 541 527.948 541 528.5C541 529.052 541.448 529.5 542 529.5ZM561 497.5C561 498.052 560.552 498.5 560 498.5C559.448 498.5 559 498.052 559 497.5C559 496.948 559.448 496.5 560 496.5C560.552 496.5 561 496.948 561 497.5ZM579 465.5C579.552 465.5 580 465.052 580 464.5C580 463.948 579.552 463.5 579 463.5C578.448 463.5 578 463.948 578 464.5C578 465.052 578.448 465.5 579 465.5ZM594 443.5C594 444.052 593.552 444.5 593 444.5C592.448 444.5 592 444.052 592 443.5C592 442.948 592.448 442.5 593 442.5C593.552 442.5 594 442.948 594 443.5ZM625 443.5C625.552 443.5 626 443.052 626 442.5C626 441.948 625.552 441.5 625 441.5C624.448 441.5 624 441.948 624 442.5C624 443.052 624.448 443.5 625 443.5Z" fill="#992CAF"/>
<path id="l5" fill-rule="evenodd" clip-rule="evenodd" d="M567 198C568.439 198.821 568.941 200.653 568.12 202.092L542.25 245.5L517.112 289.976C516.579 290.918 515.582 291.5 514.5 291.5H377.165L306.995 404.065L327.603 440.008C328.427 441.446 327.93 443.279 326.492 444.103C325.055 444.927 323.222 444.43 322.397 442.993L300.897 405.492C300.348 404.534 300.37 403.351 300.954 402.413L372.954 286.913C373.502 286.034 374.464 285.5 375.5 285.5H512.75L537.888 241.024L537.894 241.014L562.908 199.12C563.729 197.681 565.561 197.179 567 198ZM325 439C325 439.552 324.552 440 324 440C323.448 440 323 439.552 323 439C323 438.448 323.448 438 324 438C324.552 438 325 438.448 325 439ZM324 372C324.552 372 325 371.552 325 371C325 370.448 324.552 370 324 370C323.448 370 323 370.448 323 371C323 371.552 323.448 372 324 372ZM344 341C344 341.552 343.552 342 343 342C342.448 342 342 341.552 342 341C342 340.448 342.448 340 343 340C343.552 340 344 340.448 344 341ZM530 263C530.552 263 531 262.552 531 262C531 261.448 530.552 261 530 261C529.448 261 529 261.448 529 262C529 262.552 529.448 263 530 263ZM542 242C542 242.552 541.552 243 541 243C540.448 243 540 242.552 540 242C540 241.448 540.448 241 541 241C541.552 241 542 241.448 542 242ZM553 223C553.552 223 554 222.552 554 222C554 221.448 553.552 221 553 221C552.448 221 552 221.448 552 222C552 222.552 552.448 223 553 223ZM565 203C565 203.552 564.552 204 564 204C563.448 204 563 203.552 563 203C563 202.448 563.448 202 564 202C564.552 202 565 202.448 565 203Z" fill="#827E7E"/>
<path id="l6" fill-rule="evenodd" clip-rule="evenodd" d="M491.078 124.534C491.925 123.11 491.458 121.269 490.034 120.422C488.61 119.575 486.769 120.042 485.922 121.466L454.395 174.467C452.006 178.485 451.957 183.476 454.267 187.539L509.392 284.483L566.9 386.46C568.125 388.632 568.102 391.293 566.838 393.444L518.312 476.046C517.055 478.186 514.759 479.5 512.277 479.5H497.393C492.666 479.5 488.311 482.066 486.021 486.202L367.23 700.891C365.997 703.118 363.652 704.5 361.107 704.5H337C335.343 704.5 334 705.843 334 707.5C334 709.157 335.343 710.5 337 710.5H361.107C365.834 710.5 370.189 707.934 372.479 703.798L491.27 489.109C492.503 486.882 494.848 485.5 497.393 485.5H512.277C516.886 485.5 521.151 483.059 523.486 479.085L572.012 396.483C574.358 392.489 574.402 387.547 572.126 383.512L514.613 281.526L459.483 184.573C458.239 182.385 458.265 179.698 459.552 177.535L491.078 124.534ZM488 125C488.552 125 489 124.552 489 124C489 123.448 488.552 123 488 123C487.448 123 487 123.448 487 124C487 124.552 487.448 125 488 125ZM481 137C481 137.552 480.552 138 480 138C479.448 138 479 137.552 479 137C479 136.448 479.448 136 480 136C480.552 136 481 136.448 481 137ZM472 152C472.552 152 473 151.552 473 151C473 150.448 472.552 150 472 150C471.448 150 471 150.448 471 151C471 151.552 471.448 152 472 152ZM463 167C463 167.552 462.552 168 462 168C461.448 168 461 167.552 461 167C461 166.448 461.448 166 462 166C462.552 166 463 166.448 463 167ZM456 183C456.552 183 457 182.552 457 182C457 181.448 456.552 181 456 181C455.448 181 455 181.448 455 182C455 182.552 455.448 183 456 183ZM463 195C463 195.552 462.552 196 462 196C461.448 196 461 195.552 461 195C461 194.448 461.448 194 462 194C462.552 194 463 194.448 463 195ZM469 209C469.552 209 470 208.552 470 208C470 207.448 469.552 207 469 207C468.448 207 468 207.448 468 208C468 208.552 468.448 209 469 209ZM478 221C478 221.552 477.552 222 477 222C476.448 222 476 221.552 476 221C476 220.448 476.448 220 477 220C477.552 220 478 220.448 478 221ZM486 238C486.552 238 487 237.552 487 237C487 236.448 486.552 236 486 236C485.448 236 485 236.448 485 237C485 237.552 485.448 238 486 238ZM498 256C498 256.552 497.552 257 497 257C496.448 257 496 256.552 496 256C496 255.448 496.448 255 497 255C497.552 255 498 255.448 498 256ZM522 301C522.552 301 523 300.552 523 300C523 299.448 522.552 299 522 299C521.448 299 521 299.448 521 300C521 300.552 521.448 301 522 301ZM538 326C538 326.552 537.552 327 537 327C536.448 327 536 326.552 536 326C536 325.448 536.448 325 537 325C537.552 325 538 325.448 538 326ZM551 353C551.552 353 552 352.552 552 352C552 351.448 551.552 351 551 351C550.448 351 550 351.448 550 352C550 352.552 550.448 353 551 353ZM565 375C565 375.552 564.552 376 564 376C563.448 376 563 375.552 563 375C563 374.448 563.448 374 564 374C564.552 374 565 374.448 565 375ZM562 409C562.552 409 563 408.552 563 408C563 407.448 562.552 407 562 407C561.448 407 561 407.448 561 408C561 408.552 561.448 409 562 409ZM550 430C550 430.552 549.552 431 549 431C548.448 431 548 430.552 548 430C548 429.448 548.448 429 549 429C549.552 429 550 429.448 550 430ZM532 460C532.552 460 533 459.552 533 459C533 458.448 532.552 458 532 458C531.448 458 531 458.448 531 459C531 459.552 531.448 460 532 460ZM520 480C520 480.552 519.552 481 519 481C518.448 481 518 480.552 518 480C518 479.448 518.448 479 519 479C519.552 479 520 479.448 520 480ZM505 483.5C505.552 483.5 506 483.052 506 482.5C506 481.948 505.552 481.5 505 481.5C504.448 481.5 504 481.948 504 482.5C504 483.052 504.448 483.5 505 483.5ZM493 484C493 484.552 492.552 485 492 485C491.448 485 491 484.552 491 484C491 483.448 491.448 483 492 483C492.552 483 493 483.448 493 484ZM481 502.5C481.552 502.5 482 502.052 482 501.5C482 500.948 481.552 500.5 481 500.5C480.448 500.5 480 500.948 480 501.5C480 502.052 480.448 502.5 481 502.5ZM473 518C473 518.552 472.552 519 472 519C471.448 519 471 518.552 471 518C471 517.448 471.448 517 472 517C472.552 517 473 517.448 473 518ZM462 536.5C462.552 536.5 463 536.052 463 535.5C463 534.948 462.552 534.5 462 534.5C461.448 534.5 461 534.948 461 535.5C461 536.052 461.448 536.5 462 536.5ZM403 644.5C403 645.052 402.552 645.5 402 645.5C401.448 645.5 401 645.052 401 644.5C401 643.948 401.448 643.5 402 643.5C402.552 643.5 403 643.948 403 644.5ZM366 707.5C366.552 707.5 367 707.052 367 706.5C367 705.948 366.552 705.5 366 705.5C365.448 705.5 365 705.948 365 706.5C365 707.052 365.448 707.5 366 707.5ZM380 686.5C380 687.052 379.552 687.5 379 687.5C378.448 687.5 378 687.052 378 686.5C378 685.948 378.448 685.5 379 685.5C379.552 685.5 380 685.948 380 686.5ZM393 662.5C393.552 662.5 394 662.052 394 661.5C394 660.948 393.552 660.5 393 660.5C392.448 660.5 392 660.948 392 661.5C392 662.052 392.448 662.5 393 662.5Z" fill="#F1FF4B"/>
<path id="l3" fill-rule="evenodd" clip-rule="evenodd" d="M133.091 61.9884C132.256 60.5572 130.42 60.0738 128.988 60.9087C127.557 61.7435 127.074 63.5805 127.909 65.0116L195.015 180.05C197.344 184.044 201.62 186.5 206.244 186.5H262.74C265.236 186.5 267.543 187.829 268.795 189.988L344.515 320.523C346.841 324.532 351.125 327 355.76 327H390.271C392.755 327 395.053 328.317 396.309 330.46L450.698 423.241C452.533 426.37 455.591 428.591 459.135 429.366L527.704 444.366C533.242 445.577 538.926 443.06 541.752 438.146L595.601 344.495C596.427 343.059 595.932 341.225 594.495 340.399C593.059 339.573 591.225 340.068 590.399 341.505L536.55 435.155C535.029 437.801 531.968 439.156 528.986 438.504L460.417 423.505C458.509 423.087 456.862 421.892 455.874 420.206L401.486 327.426C399.152 323.445 394.884 321 390.271 321H355.76C353.264 321 350.957 319.671 349.705 317.512L273.985 186.977C271.659 182.968 267.375 180.5 262.74 180.5H206.244C203.754 180.5 201.452 179.178 200.197 177.027L133.091 61.9884ZM590 349C590.552 349 591 348.552 591 348C591 347.448 590.552 347 590 347C589.448 347 589 347.448 589 348C589 348.552 589.448 349 590 349ZM580.5 366.5C580.5 367.052 580.052 367.5 579.5 367.5C578.948 367.5 578.5 367.052 578.5 366.5C578.5 365.948 578.948 365.5 579.5 365.5C580.052 365.5 580.5 365.948 580.5 366.5ZM552 415C552.552 415 553 414.552 553 414C553 413.448 552.552 413 552 413C551.448 413 551 413.448 551 414C551 414.552 551.448 415 552 415ZM514 438C514 438.552 513.552 439 513 439C512.448 439 512 438.552 512 438C512 437.448 512.448 437 513 437C513.552 437 514 437.448 514 438ZM482 432.5C482.552 432.5 483 432.052 483 431.5C483 430.948 482.552 430.5 482 430.5C481.448 430.5 481 430.948 481 431.5C481 432.052 481.448 432.5 482 432.5ZM457 425C457 425.552 456.552 426 456 426C455.448 426 455 425.552 455 425C455 424.448 455.448 424 456 424C456.552 424 457 424.448 457 425ZM445 408C445.552 408 446 407.552 446 407C446 406.448 445.552 406 445 406C444.448 406 444 406.448 444 407C444 407.552 444.448 408 445 408ZM426 376C426.552 376 427 375.552 427 375C427 374.448 426.552 374 426 374C425.448 374 425 374.448 425 375C425 375.552 425.448 376 426 376ZM332.5 292C332.5 292.552 332.052 293 331.5 293C330.948 293 330.5 292.552 330.5 292C330.5 291.448 330.948 291 331.5 291C332.052 291 332.5 291.448 332.5 292ZM320 273C320.552 273 321 272.552 321 272C321 271.448 320.552 271 320 271C319.448 271 319 271.448 319 272C319 272.552 319.448 273 320 273ZM301 238C301 238.552 300.552 239 300 239C299.448 239 299 238.552 299 238C299 237.448 299.448 237 300 237C300.552 237 301 237.448 301 238ZM268 184C268 184.552 267.552 185 267 185C266.448 185 266 184.552 266 184C266 183.448 266.448 183 267 183C267.552 183 268 183.448 268 184ZM228 183.5C228 184.052 227.552 184.5 227 184.5C226.448 184.5 226 184.052 226 183.5C226 182.948 226.448 182.5 227 182.5C227.552 182.5 228 182.948 228 183.5ZM189 161.5C189 162.052 188.552 162.5 188 162.5C187.448 162.5 187 162.052 187 161.5C187 160.948 187.448 160.5 188 160.5C188.552 160.5 189 160.948 189 161.5ZM171 131C171 131.552 170.552 132 170 132C169.448 132 169 131.552 169 131C169 130.448 169.448 130 170 130C170.552 130 171 130.448 171 131ZM153 100C153 100.552 152.552 101 152 101C151.448 101 151 100.552 151 100C151 99.4477 151.448 99 152 99C152.552 99 153 99.4477 153 100ZM135 69C135 69.5523 134.552 70 134 70C133.448 70 133 69.5523 133 69C133 68.4477 133.448 68 134 68C134.552 68 135 68.4477 135 69ZM201.5 183.5C202.052 183.5 202.5 183.052 202.5 182.5C202.5 181.948 202.052 181.5 201.5 181.5C200.948 181.5 200.5 181.948 200.5 182.5C200.5 183.052 200.948 183.5 201.5 183.5ZM409 345C409 345.552 408.552 346 408 346C407.448 346 407 345.552 407 345C407 344.448 407.448 344 408 344C408.552 344 409 344.448 409 345ZM285 213C285.552 213 286 212.552 286 212C286 211.448 285.552 211 285 211C284.448 211 284 211.448 284 212C284 212.552 284.448 213 285 213Z" fill="#1775CC"/>
<path id="l7" fill-rule="evenodd" clip-rule="evenodd" d="M314.415 321C312.05 321 309.845 322.194 308.553 324.174L282.138 362.649C281.395 363.786 281 365.116 281 366.474V441.242C281 442.506 281.342 443.745 281.99 444.83L355.192 567.447L355.201 567.462L384.447 615.792C386.942 619.914 386.952 625.078 384.473 629.21L317.684 740.543C317.675 740.558 317.666 740.572 317.658 740.586L276.546 806.586C275.67 807.992 273.82 808.422 272.414 807.546C271.008 806.67 270.578 804.82 271.454 803.414L312.539 737.457L312.565 737.414L379.328 626.123C380.663 623.899 380.657 621.118 379.314 618.898L350.058 570.553L350.049 570.538L276.838 447.906C275.635 445.891 275 443.588 275 441.242V366.474C275 363.951 275.734 361.483 277.113 359.369L303.528 320.895C305.928 317.217 310.023 315 314.415 315H393.5C395.157 315 396.5 316.343 396.5 318C396.5 319.657 395.157 321 393.5 321H314.415ZM312 318.5C312 319.052 311.552 319.5 311 319.5C310.448 319.5 310 319.052 310 318.5C310 317.948 310.448 317.5 311 317.5C311.552 317.5 312 317.948 312 318.5ZM278 383.5C278.552 383.5 279 383.052 279 382.5C279 381.948 278.552 381.5 278 381.5C277.448 381.5 277 381.948 277 382.5C277 383.052 277.448 383.5 278 383.5ZM279 426.5C279 427.052 278.552 427.5 278 427.5C277.448 427.5 277 427.052 277 426.5C277 425.948 277.448 425.5 278 425.5C278.552 425.5 279 425.948 279 426.5ZM278 444.5C278.552 444.5 279 444.052 279 443.5C279 442.948 278.552 442.5 278 442.5C277.448 442.5 277 442.948 277 443.5C277 444.052 277.448 444.5 278 444.5ZM296 474.5C296.552 474.5 297 474.052 297 473.5C297 472.948 296.552 472.5 296 472.5C295.448 472.5 295 472.948 295 473.5C295 474.052 295.448 474.5 296 474.5ZM311 497.5C311 498.052 310.552 498.5 310 498.5C309.448 498.5 309 498.052 309 497.5C309 496.948 309.448 496.5 310 496.5C310.552 496.5 311 496.948 311 497.5ZM326 525.5C326.552 525.5 327 525.052 327 524.5C327 523.948 326.552 523.5 326 523.5C325.448 523.5 325 523.948 325 524.5C325 525.052 325.448 525.5 326 525.5ZM349 561.5C349 562.052 348.552 562.5 348 562.5C347.448 562.5 347 562.052 347 561.5C347 560.948 347.448 560.5 348 560.5C348.552 560.5 349 560.948 349 561.5ZM367 593.5C367.552 593.5 368 593.052 368 592.5C368 591.948 367.552 591.5 367 591.5C366.448 591.5 366 591.948 366 592.5C366 593.052 366.448 593.5 367 593.5ZM370 649.5C370 650.052 369.552 650.5 369 650.5C368.448 650.5 368 650.052 368 649.5C368 648.948 368.448 648.5 369 648.5C369.552 648.5 370 648.948 370 649.5ZM352 678.5C352.552 678.5 353 678.052 353 677.5C353 676.948 352.552 676.5 352 676.5C351.448 676.5 351 676.948 351 677.5C351 678.052 351.448 678.5 352 678.5ZM324 726.5C324 727.052 323.552 727.5 323 727.5C322.448 727.5 322 727.052 322 726.5C322 725.948 322.448 725.5 323 725.5C323.552 725.5 324 725.948 324 726.5ZM310 748.5C310.552 748.5 311 748.052 311 747.5C311 746.948 310.552 746.5 310 746.5C309.448 746.5 309 746.948 309 747.5C309 748.052 309.448 748.5 310 748.5ZM294 774.5C294 775.052 293.552 775.5 293 775.5C292.448 775.5 292 775.052 292 774.5C292 773.948 292.448 773.5 293 773.5C293.552 773.5 294 773.948 294 774.5ZM275 804.5C275.552 804.5 276 804.052 276 803.5C276 802.948 275.552 802.5 275 802.5C274.448 802.5 274 802.948 274 803.5C274 804.052 274.448 804.5 275 804.5Z" fill="#E9E9E9"/>
<g id="Rails">
<path id="PATHL7" d="M275 803.5L293 774.5L310 747.5L323 726.5L335.5 707L352 677.5L369 649.5L385 622L367 592.5L348 561.5L326 524.5L310 497.5L296 473.5L278 443.5V426.5V404V382.5V362.5L299.5 331.5L311 318.5H351H391"/>
<path id="PATHL9" d="M625 442.5L593 443L579 464.5L560 497.5L542 528.5L522 563L504 565H471L452 565.5L436.5 594L421 620.5H400L382.5 621L351 620L334 596.5L324 583.5L306 581.5H269H207H181H155"/>
<path id="PATHL5" d="M324 439L304.5 404L324 371L343 341L354.5 321L375 288.5H408.5H446H481H513.5L530 262L541 242L553 222L564 203"/>
<path id="PATHL6" d="M334.5 707L366 706.5L379 686.5L393 661.5L402 644.5L418.5 616L431.5 592L447.5 563L462 535.5L472 518L481 501.5L491.5 484L505 482.5L519 480L532 459L539 446L549 430L562 408L571 390.5L564 375L551 352L537 326L522 300L512.5 284.5L497 256L486 237L477 221L469 208.5L462 195L456 182L462 167L472 151L480 137L488 124"/>
<path id="PATHL4" d="M4 268V245V220L7.5 203.5L25.5 202H57L87 203L107 234L127.5 268.5L150.5 307.5V325L152 349L153 372L155 386L162.5 395L173 403L185 403.5H203.5H228H251H279.237H305.874H334H376"/>
<path id="PATHL2" d="M181 741.5V710V661V621V581V535V479V443L193 420.5L202 403.5L212.5 383L226 361L257 360L278.5 360.5L316 360L328 346.5L346 316.5L366 283L362.5 270L352 245L362 223L383 186L396 163L407 143V126V110V87"/>
<path id="PATHL3" d="M134 69L152 100L170 131L188 161.5L201.5 182.5L227 183.5L267 184L285 212L300 238L320 272L331.5 292L350 323.5L394.5 324L408 345L426 375L445 407L456 425L482 431.5L513 438L535 441.5L552 414L568 386.5L579.5 366.5L590.5 347.5"/>
<path id="PATHL1" d="M130 262.5L155 303H179H231H268.5L287 328.5L299 333L319 332L344 329L350 318.5L373.5 283.5H409H445.5H481H512.5H548.5H562.5H582.5H610"/>
</g>
<g id="Markers">
<g id="7-9">
<path id="7-9_2" d="M379 621C379 619.343 380.343 618 382 618C383.657 618 385 619.343 385 621C385 622.657 383.657 624 382 624C380.343 624 379 622.657 379 621Z" fill="#1E1E1E"/>
<path id="7-9 (Stroke)" fill-rule="evenodd" clip-rule="evenodd" d="M382 626C379.239 626 377 623.761 377 621C377 618.239 379.239 616 382 616C384.761 616 387 618.239 387 621C387 623.761 384.761 626 382 626ZM382 618C380.343 618 379 619.343 379 621C379 622.657 380.343 624 382 624C383.657 624 385 622.657 385 621C385 619.343 383.657 618 382 618Z" fill="white"/>
</g>
<g id="6-9">
<path id="6-9_2" d="M417 617C417 615.343 418.343 614 420 614C421.657 614 423 615.343 423 617C423 618.657 421.657 620 420 620C418.343 620 417 618.657 417 617Z" fill="#1E1E1E"/>
<path id="6-9 (Stroke)" fill-rule="evenodd" clip-rule="evenodd" d="M420 622C417.239 622 415 619.761 415 617C415 614.239 417.239 612 420 612C422.761 612 425 614.239 425 617C425 619.761 422.761 622 420 622ZM420 614C418.343 614 417 615.343 417 617C417 618.657 418.343 620 420 620C421.657 620 423 618.657 423 617C423 615.343 421.657 614 420 614Z" fill="white"/>
</g>
<g id="6-9_3">
<path id="6-9_4" d="M446 565C446 563.343 447.343 562 449 562C450.657 562 452 563.343 452 565C452 566.657 450.657 568 449 568C447.343 568 446 566.657 446 565Z" fill="#1E1E1E"/>
<path id="6-9 (Stroke)_2" fill-rule="evenodd" clip-rule="evenodd" d="M449 570C446.239 570 444 567.761 444 565C444 562.239 446.239 560 449 560C451.761 560 454 562.239 454 565C454 567.761 451.761 570 449 570ZM449 562C447.343 562 446 563.343 446 565C446 566.657 447.343 568 449 568C450.657 568 452 566.657 452 565C452 563.343 450.657 562 449 562Z" fill="white"/>
</g>
<g id="6-9_5">
<path id="6-9_6" d="M430 593C430 591.343 431.343 590 433 590C434.657 590 436 591.343 436 593C436 594.657 434.657 596 433 596C431.343 596 430 594.657 430 593Z" fill="#1E1E1E"/>
<path id="6-9 (Stroke)_3" fill-rule="evenodd" clip-rule="evenodd" d="M433 598C430.239 598 428 595.761 428 593C428 590.239 430.239 588 433 588C435.761 588 438 590.239 438 593C438 595.761 435.761 598 433 598ZM433 590C431.343 590 430 591.343 430 593C430 594.657 431.343 596 433 596C434.657 596 436 594.657 436 593C436 591.343 434.657 590 433 590Z" fill="white"/>
</g>
<g id="6-7">
<path id="6-7_2" d="M332 707C332 705.343 333.343 704 335 704C336.657 704 338 705.343 338 707C338 708.657 336.657 710 335 710C333.343 710 332 708.657 332 707Z" fill="#1E1E1E"/>
<path id="6-7 (Stroke)" fill-rule="evenodd" clip-rule="evenodd" d="M335 712C332.239 712 330 709.761 330 707C330 704.239 332.239 702 335 702C337.761 702 340 704.239 340 707C340 709.761 337.761 712 335 712ZM335 704C333.343 704 332 705.343 332 707C332 708.657 333.343 710 335 710C336.657 710 338 708.657 338 707C338 705.343 336.657 704 335 704Z" fill="white"/>
</g>
<g id="4-7">
<path id="4-7_2" d="M275 404C275 402.343 276.343 401 278 401C279.657 401 281 402.343 281 404C281 405.657 279.657 407 278 407C276.343 407 275 405.657 275 404Z" fill="#1E1E1E"/>
<path id="4-7 (Stroke)" fill-rule="evenodd" clip-rule="evenodd" d="M278 409C275.239 409 273 406.761 273 404C273 401.239 275.239 399 278 399C280.761 399 283 401.239 283 404C283 406.761 280.761 409 278 409ZM278 401C276.343 401 275 402.343 275 404C275 405.657 276.343 407 278 407C279.657 407 281 405.657 281 404C281 402.343 279.657 401 278 401Z" fill="white"/>
</g>
<g id="4-5">
<path id="4-5_2" d="M302 404C302 402.343 303.343 401 305 401C306.657 401 308 402.343 308 404C308 405.657 306.657 407 305 407C303.343 407 302 405.657 302 404Z" fill="#1E1E1E"/>
<path id="4-5 (Stroke)" fill-rule="evenodd" clip-rule="evenodd" d="M305 409C302.239 409 300 406.761 300 404C300 401.239 302.239 399 305 399C307.761 399 310 401.239 310 404C310 406.761 307.761 409 305 409ZM305 401C303.343 401 302 402.343 302 404C302 405.657 303.343 407 305 407C306.657 407 308 405.657 308 404C308 402.343 306.657 401 305 401Z" fill="white"/>
</g>
<g id="3-6">
<path id="3-6_2" d="M573 389C573 390.657 571.657 392 570 392C568.343 392 567 390.657 567 389C567 387.343 568.343 386 570 386C571.657 386 573 387.343 573 389Z" fill="#1E1E1E"/>
<path id="3-6 (Stroke)" fill-rule="evenodd" clip-rule="evenodd" d="M575 389C575 391.761 572.761 394 570 394C567.239 394 565 391.761 565 389C565 386.239 567.239 384 570 384C572.761 384 575 386.239 575 389ZM570 392C571.657 392 573 390.657 573 389C573 387.343 571.657 386 570 386C568.343 386 567 387.343 567 389C567 390.657 568.343 392 570 392Z" fill="white"/>
</g>
<g id="3-6_3">
<path id="3-6_4" d="M541 444C541 445.657 539.657 447 538 447C536.343 447 535 445.657 535 444C535 442.343 536.343 441 538 441C539.657 441 541 442.343 541 444Z" fill="#1E1E1E"/>
<path id="3-6 (Stroke)_2" fill-rule="evenodd" clip-rule="evenodd" d="M543 444C543 446.761 540.761 449 538 449C535.239 449 533 446.761 533 444C533 441.239 535.239 439 538 439C540.761 439 543 441.239 543 444ZM538 447C539.657 447 541 445.657 541 444C541 442.343 539.657 441 538 441C536.343 441 535 442.343 535 444C535 445.657 536.343 447 538 447Z" fill="white"/>
</g>
<g id="2-9">
<path id="2-9_2" d="M178 582C178 580.343 179.343 579 181 579C182.657 579 184 580.343 184 582C184 583.657 182.657 585 181 585C179.343 585 178 583.657 178 582Z" fill="#1E1E1E"/>
<path id="2-9 (Stroke)" fill-rule="evenodd" clip-rule="evenodd" d="M181 587C178.239 587 176 584.761 176 582C176 579.239 178.239 577 181 577C183.761 577 186 579.239 186 582C186 584.761 183.761 587 181 587ZM181 579C179.343 579 178 580.343 178 582C178 583.657 179.343 585 181 585C182.657 585 184 583.657 184 582C184 580.343 182.657 579 181 579Z" fill="white"/>
</g>
<g id="2-7">
<path id="2-7_2" d="M276 361C276 359.343 277.343 358 279 358C280.657 358 282 359.343 282 361C282 362.657 280.657 364 279 364C277.343 364 276 362.657 276 361Z" fill="#1E1E1E"/>
<path id="2-7 (Stroke)" fill-rule="evenodd" clip-rule="evenodd" d="M279 366C276.239 366 274 363.761 274 361C274 358.239 276.239 356 279 356C281.761 356 284 358.239 284 361C284 363.761 281.761 366 279 366ZM279 358C277.343 358 276 359.343 276 361C276 362.657 277.343 364 279 364C280.657 364 282 362.657 282 361C282 359.343 280.657 358 279 358Z" fill="white"/>
</g>
<g id="2-4-8">
<path id="2-4-8_2" d="M205 404C205 405.657 203.657 407 202 407C200.343 407 199 405.657 199 404C199 402.343 200.343 401 202 401C203.657 401 205 402.343 205 404Z" fill="#1E1E1E"/>
<path id="2-4-8 (Stroke)" fill-rule="evenodd" clip-rule="evenodd" d="M207 404C207 406.761 204.761 409 202 409C199.239 409 197 406.761 197 404C197 401.239 199.239 399 202 399C204.761 399 207 401.239 207 404ZM202 407C203.657 407 205 405.657 205 404C205 402.343 203.657 401 202 401C200.343 401 199 402.343 199 404C199 405.657 200.343 407 202 407Z" fill="white"/>
</g>
<g id="1-7">
<path id="1-7_2" d="M296 332C296 330.343 297.343 329 299 329C300.657 329 302 330.343 302 332C302 333.657 300.657 335 299 335C297.343 335 296 333.657 296 332Z" fill="#1E1E1E"/>
<path id="1-7 (Stroke)" fill-rule="evenodd" clip-rule="evenodd" d="M299 337C296.239 337 294 334.761 294 332C294 329.239 296.239 327 299 327C301.761 327 304 329.239 304 332C304 334.761 301.761 337 299 337ZM299 329C297.343 329 296 330.343 296 332C296 333.657 297.343 335 299 335C300.657 335 302 333.657 302 332C302 330.343 300.657 329 299 329Z" fill="white"/>
</g>
<g id="1-7_3">
<path id="1-7_4" d="M389 321C389 319.343 390.343 318 392 318C393.657 318 395 319.343 395 321C395 322.657 393.657 324 392 324C390.343 324 389 322.657 389 321Z" fill="#1E1E1E"/>
<path id="1-7 (Stroke)_2" fill-rule="evenodd" clip-rule="evenodd" d="M392 326C389.239 326 387 323.761 387 321C387 318.239 389.239 316 392 316C394.761 316 397 318.239 397 321C397 323.761 394.761 326 392 326ZM392 318C390.343 318 389 319.343 389 321C389 322.657 390.343 324 392 324C393.657 324 395 322.657 395 321C395 319.343 393.657 318 392 318Z" fill="white"/>
</g>
<g id="1-5-8">
<path id="1-5-8_2" d="M442 286C442 284.343 443.343 283 445 283C446.657 283 448 284.343 448 286C448 287.657 446.657 289 445 289C443.343 289 442 287.657 442 286Z" fill="#1E1E1E"/>
<path id="1-5-8 (Stroke)" fill-rule="evenodd" clip-rule="evenodd" d="M445 291C442.239 291 440 288.761 440 286C440 283.239 442.239 281 445 281C447.761 281 450 283.239 450 286C450 288.761 447.761 291 445 291ZM445 283C443.343 283 442 284.343 442 286C442 287.657 443.343 289 445 289C446.657 289 448 287.657 448 286C448 284.343 446.657 283 445 283Z" fill="white"/>
</g>
<g id="1-5">
<path id="1-5-8_3" d="M478 286C478 284.343 479.343 283 481 283C482.657 283 484 284.343 484 286C484 287.657 482.657 289 481 289C479.343 289 478 287.657 478 286Z" fill="#1E1E1E"/>
<path id="1-5-8 (Stroke)_2" fill-rule="evenodd" clip-rule="evenodd" d="M481 291C478.239 291 476 288.761 476 286C476 283.239 478.239 281 481 281C483.761 281 486 283.239 486 286C486 288.761 483.761 291 481 291ZM481 283C479.343 283 478 284.343 478 286C478 287.657 479.343 289 481 289C482.657 289 484 287.657 484 286C484 284.343 482.657 283 481 283Z" fill="white"/>
</g>
<g id="1-5_2">
<path id="1-5-8_4" d="M406 286C406 284.343 407.343 283 409 283C410.657 283 412 284.343 412 286C412 287.657 410.657 289 409 289C407.343 289 406 287.657 406 286Z" fill="#1E1E1E"/>
<path id="1-5-8 (Stroke)_3" fill-rule="evenodd" clip-rule="evenodd" d="M409 291C406.239 291 404 288.761 404 286C404 283.239 406.239 281 409 281C411.761 281 414 283.239 414 286C414 288.761 411.761 291 409 291ZM409 283C407.343 283 406 284.343 406 286C406 287.657 407.343 289 409 289C410.657 289 412 287.657 412 286C412 284.343 410.657 283 409 283Z" fill="white"/>
</g>
<g id="1-4">
<path id="1-4_2" d="M155 305C155 306.657 153.657 308 152 308C150.343 308 149 306.657 149 305C149 303.343 150.343 302 152 302C153.657 302 155 303.343 155 305Z" fill="#1E1E1E"/>
<path id="1-4 (Stroke)" fill-rule="evenodd" clip-rule="evenodd" d="M157 305C157 307.761 154.761 310 152 310C149.239 310 147 307.761 147 305C147 302.239 149.239 300 152 300C154.761 300 157 302.239 157 305ZM152 308C153.657 308 155 306.657 155 305C155 303.343 153.657 302 152 302C150.343 302 149 303.343 149 305C149 306.657 150.343 308 152 308Z" fill="white"/>
</g>
<g id="1-4_3">
<path id="1-4_4" d="M132 266C132 267.657 130.657 269 129 269C127.343 269 126 267.657 126 266C126 264.343 127.343 263 129 263C130.657 263 132 264.343 132 266Z" fill="#1E1E1E"/>
<path id="1-4 (Stroke)_2" fill-rule="evenodd" clip-rule="evenodd" d="M134 266C134 268.761 131.761 271 129 271C126.239 271 124 268.761 124 266C124 263.239 126.239 261 129 261C131.761 261 134 263.239 134 266ZM129 269C130.657 269 132 267.657 132 266C132 264.343 130.657 263 129 263C127.343 263 126 264.343 126 266C126 267.657 127.343 269 129 269Z" fill="white"/>
</g>
<g id="1-2-5">
<path id="1-2-5_2" d="M364.938 282.5C365.766 281.065 367.601 280.573 369.036 281.402L375.964 285.402C377.399 286.23 377.891 288.065 377.062 289.5C376.234 290.935 374.399 291.426 372.964 290.598L366.036 286.598C364.601 285.77 364.109 283.935 364.938 282.5Z" fill="#1E1E1E"/>
<path id="1-2-5_3" fill-rule="evenodd" clip-rule="evenodd" d="M370.036 279.67L376.964 283.67C379.356 285.051 380.175 288.109 378.794 290.5C377.414 292.891 374.356 293.711 371.964 292.33L365.036 288.33C362.644 286.949 361.825 283.891 363.206 281.5C364.587 279.109 367.644 278.289 370.036 279.67ZM369.036 281.402C367.601 280.573 365.766 281.065 364.938 282.5C364.109 283.935 364.601 285.77 366.036 286.598L372.964 290.598C374.399 291.426 376.234 290.935 377.062 289.5C377.891 288.065 377.399 286.23 375.964 285.402L369.036 281.402Z" fill="white"/>
</g>
<g id="1-2-5_4">
<path id="1-2-5_5" d="M343.938 315.5C344.766 314.065 346.601 313.573 348.036 314.402L354.964 318.402C356.399 319.23 356.891 321.065 356.062 322.5C355.234 323.935 353.399 324.426 351.964 323.598L345.036 319.598C343.601 318.77 343.109 316.935 343.938 315.5Z" fill="#1E1E1E"/>
<path id="1-2-5_6" fill-rule="evenodd" clip-rule="evenodd" d="M349.036 312.67L355.964 316.67C358.356 318.051 359.175 321.109 357.794 323.5C356.414 325.891 353.356 326.711 350.964 325.33L344.036 321.33C341.644 319.949 340.825 316.891 342.206 314.5C343.587 312.109 346.644 311.289 349.036 312.67ZM348.036 314.402C346.601 313.573 344.766 314.065 343.938 315.5C343.109 316.935 343.601 318.77 345.036 319.598L351.964 323.598C353.399 324.426 355.234 323.935 356.062 322.5C356.891 321.065 356.399 319.23 354.964 318.402L348.036 314.402Z" fill="white"/>
</g>
<g id="1-5-6">
<path id="1-2-5_7" d="M508.725 277.813C510.19 277.038 512.005 277.597 512.78 279.061L516.523 286.132C517.298 287.596 516.739 289.412 515.274 290.187C513.81 290.962 511.995 290.403 511.22 288.939L507.477 281.868C506.702 280.404 507.261 278.588 508.725 277.813Z" fill="#1E1E1E"/>
<path id="1-2-5_8" fill-rule="evenodd" clip-rule="evenodd" d="M514.548 278.126L518.29 285.196C519.582 287.637 518.651 290.663 516.21 291.955C513.769 293.246 510.744 292.315 509.452 289.874L505.71 282.804C504.418 280.363 505.349 277.337 507.79 276.045C510.231 274.754 513.256 275.685 514.548 278.126ZM512.78 279.061C512.005 277.597 510.19 277.038 508.725 277.813C507.261 278.588 506.702 280.404 507.477 281.868L511.22 288.939C511.995 290.403 513.81 290.962 515.274 290.187C516.739 289.412 517.298 287.596 516.523 286.132L512.78 279.061Z" fill="white"/>
</g>
</g>
</g>
</svg>
